<svg xmlns="http://www.w3.org/2000/svg" width="386" height="79" viewBox="0 0 386 79" fill="none"><path fill-rule="evenodd" clip-rule="evenodd" d="M375.187 5.0638C376.427 3.1422 377.574 2.9213 382.442 2.0536L383.51 3.25C383.51 3.25 384.091 2.9979 385.19 3.6274C385.096 5.3282 384.75 6.4464 384.672 7.8637C384.075 8.3994 384.358 8.4151 384.358 8.4151C384.358 8.4151 384.075 8.3993 383.494 8.6515C383.494 8.6515 382.929 8.6202 382.646 8.6045C383.997 9.8167 382.897 9.1872 385.143 9.5959L385.222 13.2965C383.84 12.6513 383.07 11.1871 382.238 10.8566C379.458 9.8497 379.882 12.4322 378.94 14.086L376.616 9.9766L380.872 9.9279C380.118 8.1802 381.217 8.8097 379.898 7.0307L377.888 7.4881C379.757 4.4639 378.61 4.6848 378.375 3.8187C376.6 5.1421 377.762 4.6378 375.187 5.0638ZM23.5475 0.945301C26.9238 1.4166 37.1784 0.562802 41.7168 0.529802C46.5379 0.512402 53.8558 1.4863 58.9909 0.917702C61.849 0.507302 72.5591 1.669 82.5309 0.799603C87.9487 0.246603 86.7396 1.6013 89.849 1.7735C92.393 1.9144 95.2667 1.2205 97.811 1.3614L122.214 1.0068C127.051 0.706002 126.721 1.5407 130.679 1.7598L146.869 1.2347C149.979 1.4069 152.036 0.0992018 153.638 1.8939L178.073 0.972403C182.894 0.955003 186.254 1.7098 191.374 1.4246L230.241 1.0179C236.742 1.3779 247.217 1.6736 252.917 1.1363C253.482 1.1676 253.781 0.899802 255.194 0.978102C258.586 1.1659 259.104 2.0475 262.229 1.9363C264.224 1.7624 267.38 1.0842 269.359 1.1938C272.484 1.0825 272.72 1.9486 276.394 2.152C282.346 2.1973 285.22 1.5035 295.396 2.067C307.818 3.0392 304.74 2.3 314.146 1.3993C314.429 1.4149 314.712 1.4306 314.994 1.4462C314.994 1.4462 314.994 1.4462 315.277 1.4619L315.559 1.4775C315.842 1.4932 316.141 1.2254 316.141 1.2254L337.058 2.3837C342.209 1.5316 349.637 0.521202 354.599 3.0707L363.974 2.7369C363.911 3.8708 367.979 2.1057 371.952 2.0414L372.988 3.8047C372.69 4.0725 372.69 4.0725 372.69 4.0725C372.69 4.0725 372.407 4.0569 372.125 4.0412L370.727 3.6795C371.072 7.6793 370.57 6.5142 369.612 8.4514C370.994 9.0966 370.523 7.3645 370.963 9.6636L371.387 12.246C373.538 9.2375 370.9 10.7974 373.805 9.5366L375.941 11.9296C373.617 12.9382 375.391 11.6149 374.072 14.9538C373.051 18.025 374.245 16.9537 372.518 17.4267C372.8 17.4424 372.8 17.4424 373.067 17.7415C373.051 18.025 373.334 18.0406 373.617 18.0562C374.7 18.9692 374.716 18.6858 375.187 20.4179L379.6 22.6526L380.26 20.9831C381.375 21.3292 383.447 19.738 381.83 23.3448L385.426 19.8476C385.426 19.8476 385.206 18.698 384.924 18.6823L386.007 19.5954L385.191 24.0996L385.52 28.3828L382.961 28.5254C380.527 31.5182 383.84 28.0054 380.966 28.6993C379.239 29.1723 380.071 29.5028 378.862 30.8575C379.38 31.7392 379.663 31.7548 380.166 32.9199L385.348 36.619C383.715 40.5092 386.526 40.9491 384.155 42.8082C383.558 43.3438 383.275 43.3282 382.977 43.596L383.778 44.4933L384.045 44.7925C385.348 46.855 384.987 43.1386 385.018 47.6897C381.579 48.3523 382.961 48.9975 381.375 46.9193L381.077 47.1871L380.449 48.2896C379.538 49.3765 379.302 48.5106 378.91 50.4792L378.533 52.1643L381.909 52.6355C383.605 52.7295 384.39 53.9103 384.406 53.6269L384.673 53.926C382.129 58.9032 385.113 61.343 385.349 62.2091L382.176 63.1707C383.166 65.7845 382.051 65.4384 382.051 65.4384L381.438 66.2576C382.019 66.0054 382.318 65.7376 382.883 65.7689L383.951 66.9653C383.244 69.4852 384.501 67.2801 384.281 71.2486C383.134 71.4695 385.726 70.7599 382.868 71.1703L382.773 72.8712L382.428 73.9893C384.611 75.5319 384.548 76.6658 383.386 77.1701C381.407 77.0605 379.13 77.2188 377.136 77.3927C376.57 77.3614 376.005 77.3301 375.424 77.5822C374.859 77.5509 374.56 77.8187 373.995 77.7874C373.744 77.2048 374.309 77.2361 374.325 76.9527C374.042 76.937 373.759 76.9214 372.896 77.1579C372.644 76.5753 372.629 76.8587 373.304 74.9058C369.849 75.8518 371.891 74.8275 369.394 73.8363C368.42 76.057 368.185 75.191 370.352 77.017L369.19 77.5213C367.525 76.8604 364.651 77.5543 362.092 77.6969L357.003 77.4152C355.873 77.3525 354.758 77.0064 353.91 76.9595C352.496 76.8812 352.214 76.8656 351.915 77.1334L351.067 77.0864C351.067 77.0864 350.502 77.0551 350.486 77.3386L350.204 77.323C350.204 77.323 350.204 77.323 349.921 77.3073C349.638 77.2917 349.638 77.2917 349.073 77.2603L348.79 77.2447L345.1 77.3247L344.817 77.309C342.273 77.1682 342.98 74.6483 341.943 72.8849C340.075 75.9091 342.635 75.7664 338.991 74.996L340.53 77.9246C338.819 78.1141 337.123 78.0202 333.165 77.8011C332.898 77.502 332.914 77.2185 332.647 76.9193L332.035 77.7385C331.469 77.7072 330.904 77.6759 330.338 77.6446C320.461 76.8132 317.289 77.7749 311.337 77.7296C307.662 77.5261 307.427 76.6601 304.302 76.7713C302.323 76.6618 299.433 77.6392 297.172 77.5139C294.047 77.6252 293.529 76.7435 290.137 76.5556C288.723 76.4774 288.441 76.4617 287.86 76.7139C282.144 77.5347 271.685 76.9555 265.183 76.5955L226.317 77.0022C222.343 77.0665 219.533 76.6265 216.141 76.4387C215.874 76.1395 215.308 76.1083 214.476 75.7779C214.743 76.077 214.743 76.0769 214.727 76.3604C214.162 76.3291 213.597 76.2978 213.031 76.2665L211.319 76.456C211.335 76.1726 211.052 76.1569 211.068 75.8734L210.785 75.8578C210.785 75.8578 210.204 76.11 209.341 76.3465C209.058 76.3308 209.058 76.3308 208.76 76.5986C205.619 76.9934 206.514 76.1899 203.436 75.4508C203.405 76.0177 203.656 76.6003 203.907 77.1829L195.961 77.3116C195.773 75.5951 196.055 75.6108 192.585 76.8403C192.302 76.8246 192.287 77.1081 192.004 77.0924C191.721 77.0768 191.705 77.3603 191.705 77.3603L188.863 77.4871C187.261 75.6924 185.204 77.0002 182.095 76.8281L165.904 77.3531C162.229 77.1496 162.292 76.0158 157.44 76.6001L133.036 76.9547C132.753 76.939 132.471 76.9234 131.905 76.8921L130.838 75.6955C130.571 75.3964 129.738 75.0661 129.456 75.0504C124.383 74.4852 126.001 75.9964 125.907 77.6972C125.907 77.6972 125.938 77.1302 125.655 77.1146L123.441 76.139C121.462 76.0294 121.164 76.2972 119.735 76.5024C119.452 76.4867 119.154 76.7546 118.871 76.7389C118.589 76.7233 118.023 76.692 117.725 76.9598C116.013 77.1493 114.301 77.3389 112.323 77.2293C109.496 77.0728 107.25 76.664 104.392 77.0744C102.681 77.264 96.1635 77.1874 93.3683 76.464C93.0699 76.7318 92.4889 76.984 92.1905 77.2518C91.0441 77.4727 89.6308 77.3944 88.2175 77.3161C86.8198 76.9544 85.1395 76.577 81.9987 76.9718C80.02 76.8622 78.0414 76.7526 76.3454 76.6587C75.2147 76.5961 73.503 76.7856 71.8069 76.6916C70.9589 76.6447 70.111 76.5977 69.2629 76.5508C63.5625 77.0881 59.6051 76.869 53.9518 76.5559L50.2771 76.3525C40.5565 77.8045 36.9916 75.6167 29.2968 76.328C20.7382 77.2757 13.2947 78.5695 9.69829 71.8306C9.99669 71.5628 10.0124 71.2794 10.0752 70.1455L14.5665 70.9629C13.9069 67.5143 13.3258 67.7665 14.2523 66.3961C14.2523 66.3961 13.9697 66.3805 13.7027 66.0814L12.1323 63.7197C10.3264 65.6101 12.0851 64.5701 10.0594 65.311C9.91799 62.7441 10.1222 64.1771 9.35269 62.7128L7.76649 60.6346C11.5511 58.8539 7.76659 60.6346 10.1692 58.2087C11.3784 56.854 10.5303 56.807 11.9122 57.4522C11.8965 57.7357 11.8809 58.0191 11.5669 58.5704C11.4413 60.8381 12.1637 63.1528 15.0688 61.892C14.3621 59.2939 14.425 63.2781 13.8282 58.6956C13.6397 56.9792 13.6868 56.1288 13.7966 54.1445C10.6088 55.3897 15.4299 55.3723 10.0435 55.3584L8.45739 53.2802C7.37379 52.3672 7.09109 52.3515 5.70914 51.7063C7.16959 50.9342 7.42089 51.5168 9.11689 51.6107C8.44159 48.4457 8.81849 51.8785 8.12739 48.9969C9.02249 48.1934 11.8021 49.2004 9.74479 45.3901C12.3517 44.3971 11.7863 44.3659 11.6449 41.799L15.0056 42.5538L16.3403 38.9314C15.2253 38.5853 16.623 38.947 15.2254 38.5853C13.5607 37.9244 16.1047 38.0653 13.2624 38.1922L13.7021 40.4913L10.8755 40.3348L11.3623 41.7834C10.2316 41.7208 9.66629 41.6894 6.87101 40.966L7.01229 38.4148C8.47269 37.6427 7.29499 38.4304 8.18999 37.627C5.99148 36.3679 6.5411 36.6827 5.08067 37.4548C5.06485 32.6202 5.44186 36.0531 3.05481 33.0776C1.21741 30.4168 2.12813 29.3299 3.63566 27.7074L0.447754 23.8346C4.4679 22.9198 1.57839 23.8972 2.78755 22.5425C-0.525976 20.9373 0.997264 19.0313 4.57777 20.9356C2.53618 16.8418 4.81334 21.8016 4.87601 15.5498C2.97582 14.0229 3.74534 15.4871 2.14351 13.6924C1.3426 12.7951 2.72453 13.4402 0.541674 11.8977C3.39975 11.4873 3.9023 12.6525 4.86018 10.7152C6.16353 7.6597 4.92303 9.5813 4.38908 8.983C4.40478 8.6996 4.12209 8.684 4.13779 8.4005C4.15349 8.117 3.8708 8.1014 3.8865 7.8179C2.95989 4.0702 5.33112 2.2113 8.47189 1.8165L8.67609 3.2495C8.66039 3.533 8.64469 3.8164 8.62899 4.0998C10.6234 3.926 8.89589 4.399 9.82239 3.0286L10.4663 1.6426C13.4501 4.0825 10.906 3.9416 11.173 4.2407C12.8533 4.6181 12.0053 4.5712 12.9161 3.4843C16.7792 0.286202 14.4236 1.8617 23.5475 0.945301ZM12.509 56.9166C14.0951 58.9947 12.8702 55.5149 12.509 56.9166ZM169.405 49.9666L166.61 49.2431C167.348 51.2743 166.799 50.9595 168.133 52.4551C169.013 51.9351 168.715 52.203 169.343 51.1004C170.568 49.4622 169.17 54.2185 169.405 49.9666ZM352.259 9.4809L354.222 9.8739L354.018 8.4409C353.736 8.4252 352.354 7.7801 352.071 7.7644L352.259 9.4809ZM323.474 12.1519C326.301 12.3084 326.599 12.0406 328.405 10.1502C328.405 10.1502 327.652 8.4025 325.092 8.5451L323.663 8.7503C323.38 8.7346 323.364 9.0181 323.082 9.0025C322.218 9.239 321.637 9.4911 320.491 9.7119L322.501 14.3726C323.082 14.1205 326.113 15.71 323.474 12.1519ZM331.201 26.2278C329.976 27.866 329.945 28.4329 328.971 30.6537C332.081 30.8259 333.541 30.0537 334.53 27.5495C334.248 27.5338 334.263 27.2503 333.981 27.2347L332.881 26.6052C332.049 26.2748 332.033 26.5582 331.201 26.2278ZM334.813 27.5651L338.66 29.7686C338.441 28.619 338.503 27.4852 337.404 26.8556C334.672 24.9983 334.829 27.2817 334.813 27.5651ZM348.114 33.1354C347.141 35.3562 347.219 33.9389 347.392 35.9388L352.087 38.1891L354.16 36.5979C354.16 36.5979 354.16 36.5978 354.427 36.897C355.118 39.7786 354.411 37.1805 355.228 37.7944C355.228 37.7944 355.495 38.0935 355.778 38.1092C356.06 38.1248 356.06 38.1247 356.327 38.4239C359.107 39.4308 358.919 37.7144 361.101 39.2569C362.373 36.7684 363.347 39.6656 361.604 35.3041C363.551 35.9806 362.954 36.5162 364.886 37.4761L367.398 33.066C366.331 31.8695 366.629 31.6017 364.964 30.9408C363.849 30.5947 361.886 30.2017 360.473 30.1234L360.489 34.958C360.206 34.9423 359.672 34.3441 359.389 34.3284C357.992 33.9667 357.96 34.5336 355.055 35.7944L353.03 36.5353C353.045 36.2518 352.778 35.9527 352.778 35.9527C352.276 34.7875 352.307 34.2206 352.323 33.9371C352.04 33.9214 351.773 33.6224 351.49 33.6067C350.407 32.6937 348.978 32.8989 348.114 33.1354ZM370.665 30.4035L367.979 32.8138C367.979 32.8138 367.681 33.0816 367.398 33.066L369.848 34.9076C371.764 36.151 370.995 34.6868 373.507 35.3946L372.879 36.4971C372.235 37.8831 370.335 36.3563 372.487 38.4657C373.554 39.6622 374.245 37.4258 374.528 37.4415C374.528 37.4415 374.826 37.1736 374.842 36.8902C376.177 38.3857 375.643 37.7875 376.475 38.1179C377.37 37.3145 378.517 37.0937 379.695 36.3059C379.71 36.0224 379.537 34.0225 378.47 32.826C378.721 33.4086 378.674 34.259 378.014 35.9285L374.873 36.3233L375.266 34.3546L375.282 34.0712C375.313 33.5042 375.643 32.6695 375.187 30.654C376.035 30.7009 376.318 30.7165 377.716 31.0782C378.218 27.1254 378.454 27.9915 379.113 26.322C377.716 25.9603 373.256 24.576 372.314 26.2298C370.146 29.5218 373.695 26.875 370.665 30.4035ZM359.751 27.8088C360.913 27.3044 360.394 26.4228 360.457 25.2889C358.683 26.6123 359.028 25.494 357.521 27.1166C357.788 27.4157 356.83 29.353 359.751 27.8088ZM354.003 29.1965L352.967 27.4331L352.7 27.1339L351.522 27.9218L351.239 27.9061C351.239 27.9061 352.433 26.8349 350.674 27.8748L350.391 27.8592L349.166 29.4973C351.082 30.7407 350.234 30.6938 353.061 30.8503L353.422 29.4487C353.438 29.1652 353.438 29.1652 353.438 29.1652C353.422 29.4487 353.705 29.4643 354.003 29.1965ZM349.873 21.8594L351.663 20.2525C351.663 20.2525 352.103 17.4335 350.265 19.8908C349.04 21.529 349.983 19.8752 349.873 21.8594ZM376.491 58.3066L373.021 59.5361C374.057 61.2995 374.073 61.016 376.083 60.5587C375.911 63.6768 375.753 61.3934 376.445 64.275C379.083 62.7151 376.806 62.8733 379.177 61.0143L381.501 60.0057L381.391 56.8719C378.502 57.8492 379.978 56.7936 378.407 59.55L376.491 58.3066ZM375.722 46.6062C376.868 46.3854 377.449 46.1332 378.329 45.6132L379.145 41.1091C383.149 40.4778 381.328 42.6517 383.197 39.6275C379.459 40.5579 378.878 40.81 375.863 38.9371C376.884 40.9839 377.433 41.2986 377.575 43.8655L376.805 42.4012C376.004 41.5038 377.386 42.1491 375.439 41.4726L373.664 42.796C374.701 44.5594 373.853 44.5124 376.413 44.3698C376.13 44.3542 374.968 44.8585 374.968 44.8585C373.225 45.615 373.806 45.3628 373.209 45.8985C374.026 46.5123 374.01 46.7958 375.722 46.6062ZM354.019 59.6211C352.151 57.5273 352.685 58.1256 350.172 57.4178C351.711 60.3464 351.193 59.4646 350.832 60.8663L352.229 61.228L354.019 59.6211ZM353.03 67.2434C352.088 68.8973 352.999 67.8104 351.507 69.1494C351.193 69.7007 350.926 69.4016 350.612 69.9528L352.544 70.9128C352.842 70.645 353.14 70.3772 353.14 70.3772C353.14 70.3772 353.156 70.0937 353.454 69.8259C354.067 69.0068 353.47 69.5424 354.114 68.1564L353.03 67.2434ZM377.387 67.7392C375.565 69.913 376.021 66.8106 375.188 71.5982L379.052 73.5181C379.067 73.2346 378.942 70.3843 378.942 70.3843L379.161 66.4158C379.177 66.1324 379.758 65.8801 379.789 65.3132C379.805 65.0297 380.088 65.0454 380.386 64.7776L377.764 66.0541C377.701 67.1879 379.208 65.5654 377.387 67.7392ZM335.645 38.1316C336.933 40.4776 336.886 41.328 339.257 39.469C339.273 39.1855 339.289 38.902 339.289 38.902L339.32 38.3351C339.336 38.0517 339.132 36.6186 339.147 36.3352L335.645 38.1316ZM25.0248 51.07C20.6433 48.2684 22.6691 47.5275 17.9424 50.9621L21.2716 52.2838L22.8735 54.0785C23.1561 54.0941 23.7215 54.1254 24.0041 54.1411L23.0147 51.5273C25.6372 50.2509 22.9676 52.3777 25.0248 51.07ZM9.72859 20.0835C12.5866 19.6731 11.6602 21.0434 12.1155 17.9409C9.82279 18.3826 10.1525 17.5479 9.72859 20.0835ZM6.79167 6.5571C9.03749 12.0838 8.55059 10.6352 9.39859 10.6821C10.7176 7.3432 8.56629 10.3517 11.3301 6.5241L6.79167 6.5571ZM24.804 8.9762C21.6789 9.0875 23.3906 8.898 23.0608 9.7328L24.0974 11.4961L25.1024 8.7084L24.804 8.9762ZM372.674 4.356C373.24 4.3873 372.376 4.6238 372.674 4.356Z" fill="#141515"></path><path d="M25.6134 33H28.3869V17H25.6134V33Z" fill="#C3F000"></path><path d="M31.6769 31.637L33.6377 29.676L22.3232 18.363L20.3622 20.3243L31.6769 31.637Z" fill="#C3F000"></path><path d="M35 26.3867V23.6135L19 23.6133V26.3867H35Z" fill="#C3F000"></path><path d="M33.6375 20.3241L31.6767 18.3628L20.3624 29.6759L22.3235 31.6372L33.6375 20.3241Z" fill="#C3F000"></path></svg>